<?xml version="1.0" encoding="UTF-8"?>
<svg version="1.1" viewBox="0 0 100 100" xmlns="http://www.w3.org/2000/svg">
	<g>
		<path d="m25.957 25.656c6.4336-6.3867 15.141-9.957 24.207-9.9297 9.0664 0.027344 17.75 3.6523 24.145 10.078 6.3945 6.4258 9.9805 15.129 9.9609 24.195h14.895c0.011719-13.016-5.1406-25.504-14.328-34.719-9.1875-9.2188-21.656-14.41-34.672-14.441-13.012-0.027344-25.508 5.1133-34.734 14.293l-11.305-11.305v34.09h34.094z" />
		<path d="m74.344 74.102c-6.3867 6.4648-15.078 10.125-24.164 10.172-9.082 0.050781-17.812-3.5156-24.266-9.9141-6.4531-6.3945-10.094-15.094-10.125-24.18h-14.891c0.046874 12.988 5.2383 25.426 14.438 34.594 9.1953 9.168 21.652 14.32 34.637 14.324 12.988 0.007813 25.449-5.1289 34.656-14.289l11.066 10.887v-33.375h-33.074z" />
	</g>
</svg>
